<mxfile host="Electron" modified="2024-02-20T02:36:24.524Z" agent="Mozilla/5.0 (Windows NT 10.0; Win64; x64) AppleWebKit/537.36 (KHTML, like Gecko) draw.io/21.2.8 Chrome/112.0.5615.165 Electron/24.2.0 Safari/537.36" etag="n7raGj8_I-DtE_1vfMLd" version="21.2.8" type="device">
  <diagram name="Page-1" id="7hs-xoo8xohm62iTbY6u">
    <mxGraphModel dx="2268" dy="828" grid="1" gridSize="10" guides="1" tooltips="1" connect="1" arrows="1" fold="1" page="1" pageScale="1" pageWidth="850" pageHeight="1100" math="0" shadow="0">
      <root>
        <mxCell id="0" />
        <mxCell id="1" parent="0" />
        <mxCell id="FVse9PISJMVla-ebMSzk-9" value="VPC" style="sketch=0;outlineConnect=0;gradientColor=none;html=1;whiteSpace=wrap;fontSize=12;fontStyle=0;shape=mxgraph.aws4.group;grIcon=mxgraph.aws4.group_vpc;strokeColor=#879196;fillColor=none;verticalAlign=top;align=left;spacingLeft=30;fontColor=#879196;dashed=0;" parent="1" vertex="1">
          <mxGeometry x="228.75" y="110" width="440" height="1080" as="geometry" />
        </mxCell>
        <mxCell id="FVse9PISJMVla-ebMSzk-18" style="edgeStyle=orthogonalEdgeStyle;rounded=0;orthogonalLoop=1;jettySize=auto;html=1;exitX=0.896;exitY=0.519;exitDx=0;exitDy=0;exitPerimeter=0;" parent="1" target="FVse9PISJMVla-ebMSzk-6" edge="1" source="_DM3q8n_0b13F57xZosf-30">
          <mxGeometry relative="1" as="geometry">
            <Array as="points">
              <mxPoint x="680" y="400" />
              <mxPoint x="680" y="705" />
            </Array>
            <mxPoint x="680" y="400" as="sourcePoint" />
          </mxGeometry>
        </mxCell>
        <mxCell id="FVse9PISJMVla-ebMSzk-6" value="Internet&#xa;gateway" style="sketch=0;outlineConnect=0;fontColor=#232F3E;gradientColor=none;strokeColor=#232F3E;fillColor=#ffffff;dashed=0;verticalLabelPosition=bottom;verticalAlign=top;align=center;html=1;fontSize=12;fontStyle=0;aspect=fixed;shape=mxgraph.aws4.resourceIcon;resIcon=mxgraph.aws4.internet_gateway;" parent="1" vertex="1">
          <mxGeometry x="740" y="680" width="50" height="50" as="geometry" />
        </mxCell>
        <mxCell id="FVse9PISJMVla-ebMSzk-11" value="" style="sketch=0;points=[[0,0,0],[0.25,0,0],[0.5,0,0],[0.75,0,0],[1,0,0],[0,1,0],[0.25,1,0],[0.5,1,0],[0.75,1,0],[1,1,0],[0,0.25,0],[0,0.5,0],[0,0.75,0],[1,0.25,0],[1,0.5,0],[1,0.75,0]];outlineConnect=0;fontColor=#232F3E;gradientColor=#FF4F8B;gradientDirection=north;fillColor=#BC1356;strokeColor=#ffffff;dashed=0;verticalLabelPosition=bottom;verticalAlign=top;align=center;html=1;fontSize=12;fontStyle=0;aspect=fixed;shape=mxgraph.aws4.resourceIcon;resIcon=mxgraph.aws4.api_gateway;" parent="1" vertex="1">
          <mxGeometry x="100" y="582.5" width="60" height="60" as="geometry" />
        </mxCell>
        <mxCell id="FVse9PISJMVla-ebMSzk-42" value="" style="group" parent="1" vertex="1" connectable="0">
          <mxGeometry x="282.5" y="674.5" width="400" height="665.5" as="geometry" />
        </mxCell>
        <mxCell id="FVse9PISJMVla-ebMSzk-43" value="Public subnet" style="points=[[0,0],[0.25,0],[0.5,0],[0.75,0],[1,0],[1,0.25],[1,0.5],[1,0.75],[1,1],[0.75,1],[0.5,1],[0.25,1],[0,1],[0,0.75],[0,0.5],[0,0.25]];outlineConnect=0;gradientColor=none;html=1;whiteSpace=wrap;fontSize=12;fontStyle=0;container=1;pointerEvents=0;collapsible=0;recursiveResize=0;shape=mxgraph.aws4.group;grIcon=mxgraph.aws4.group_security_group;grStroke=0;strokeColor=#248814;fillColor=#E9F3E6;verticalAlign=top;align=left;spacingLeft=30;fontColor=#248814;dashed=0;" parent="FVse9PISJMVla-ebMSzk-42" vertex="1">
          <mxGeometry x="217.5" y="207.5" width="120" height="95" as="geometry" />
        </mxCell>
        <mxCell id="FVse9PISJMVla-ebMSzk-44" value="" style="sketch=0;outlineConnect=0;fontColor=#232F3E;gradientColor=none;fillColor=#4D27AA;strokeColor=none;dashed=0;verticalLabelPosition=bottom;verticalAlign=top;align=center;html=1;fontSize=12;fontStyle=0;aspect=fixed;pointerEvents=1;shape=mxgraph.aws4.nat_gateway;" parent="FVse9PISJMVla-ebMSzk-43" vertex="1">
          <mxGeometry x="50" y="32.5" width="30" height="30" as="geometry" />
        </mxCell>
        <mxCell id="FVse9PISJMVla-ebMSzk-45" value="VPC Endpoint subnet" style="points=[[0,0],[0.25,0],[0.5,0],[0.75,0],[1,0],[1,0.25],[1,0.5],[1,0.75],[1,1],[0.75,1],[0.5,1],[0.25,1],[0,1],[0,0.75],[0,0.5],[0,0.25]];outlineConnect=0;gradientColor=none;html=1;whiteSpace=wrap;fontSize=12;fontStyle=0;container=1;pointerEvents=0;collapsible=0;recursiveResize=0;shape=mxgraph.aws4.group;grIcon=mxgraph.aws4.group_security_group;grStroke=0;strokeColor=#147EBA;fillColor=#E6F2F8;verticalAlign=top;align=left;spacingLeft=30;fontColor=#147EBA;dashed=0;" parent="FVse9PISJMVla-ebMSzk-42" vertex="1">
          <mxGeometry y="393" width="125" height="95" as="geometry" />
        </mxCell>
        <mxCell id="FVse9PISJMVla-ebMSzk-46" style="edgeStyle=orthogonalEdgeStyle;rounded=0;orthogonalLoop=1;jettySize=auto;html=1;" parent="FVse9PISJMVla-ebMSzk-42" source="FVse9PISJMVla-ebMSzk-47" target="FVse9PISJMVla-ebMSzk-43" edge="1">
          <mxGeometry relative="1" as="geometry" />
        </mxCell>
        <mxCell id="FVse9PISJMVla-ebMSzk-47" value="Private subnet" style="points=[[0,0],[0.25,0],[0.5,0],[0.75,0],[1,0],[1,0.25],[1,0.5],[1,0.75],[1,1],[0.75,1],[0.5,1],[0.25,1],[0,1],[0,0.75],[0,0.5],[0,0.25]];outlineConnect=0;gradientColor=none;html=1;whiteSpace=wrap;fontSize=12;fontStyle=0;container=1;pointerEvents=0;collapsible=0;recursiveResize=0;shape=mxgraph.aws4.group;grIcon=mxgraph.aws4.group_security_group;grStroke=0;strokeColor=#147EBA;fillColor=#E6F2F8;verticalAlign=top;align=left;spacingLeft=30;fontColor=#147EBA;dashed=0;" parent="FVse9PISJMVla-ebMSzk-42" vertex="1">
          <mxGeometry y="160" width="125" height="190" as="geometry" />
        </mxCell>
        <mxCell id="FVse9PISJMVla-ebMSzk-48" value="" style="sketch=0;outlineConnect=0;fontColor=#232F3E;gradientColor=none;fillColor=#D45B07;strokeColor=none;dashed=0;verticalLabelPosition=bottom;verticalAlign=top;align=center;html=1;fontSize=12;fontStyle=0;aspect=fixed;pointerEvents=1;shape=mxgraph.aws4.lambda_function;" parent="FVse9PISJMVla-ebMSzk-47" vertex="1">
          <mxGeometry x="45" y="77.5" width="35" height="35" as="geometry" />
        </mxCell>
        <mxCell id="FVse9PISJMVla-ebMSzk-49" value="" style="sketch=0;outlineConnect=0;fontColor=#232F3E;gradientColor=none;fillColor=#D45B07;strokeColor=none;dashed=0;verticalLabelPosition=bottom;verticalAlign=top;align=center;html=1;fontSize=12;fontStyle=0;aspect=fixed;pointerEvents=1;shape=mxgraph.aws4.lambda_function;" parent="FVse9PISJMVla-ebMSzk-47" vertex="1">
          <mxGeometry x="45" y="130" width="35" height="35" as="geometry" />
        </mxCell>
        <mxCell id="FVse9PISJMVla-ebMSzk-50" value="Deployment subnet" style="points=[[0,0],[0.25,0],[0.5,0],[0.75,0],[1,0],[1,0.25],[1,0.5],[1,0.75],[1,1],[0.75,1],[0.5,1],[0.25,1],[0,1],[0,0.75],[0,0.5],[0,0.25]];outlineConnect=0;gradientColor=none;html=1;whiteSpace=wrap;fontSize=12;fontStyle=0;container=1;pointerEvents=0;collapsible=0;recursiveResize=0;shape=mxgraph.aws4.group;grIcon=mxgraph.aws4.group_security_group;grStroke=0;strokeColor=#147EBA;fillColor=#E6F2F8;verticalAlign=top;align=left;spacingLeft=30;fontColor=#147EBA;dashed=0;" parent="FVse9PISJMVla-ebMSzk-42" vertex="1">
          <mxGeometry y="10" width="120" height="90" as="geometry" />
        </mxCell>
        <mxCell id="FVse9PISJMVla-ebMSzk-51" value="" style="outlineConnect=0;dashed=0;verticalLabelPosition=bottom;verticalAlign=top;align=center;html=1;shape=mxgraph.aws3.route_table;fillColor=#F58536;gradientColor=none;" parent="FVse9PISJMVla-ebMSzk-42" vertex="1">
          <mxGeometry x="137.5" y="150" width="30" height="30" as="geometry" />
        </mxCell>
        <mxCell id="FVse9PISJMVla-ebMSzk-52" value="" style="outlineConnect=0;dashed=0;verticalLabelPosition=bottom;verticalAlign=top;align=center;html=1;shape=mxgraph.aws3.route_table;fillColor=#F58536;gradientColor=none;" parent="FVse9PISJMVla-ebMSzk-42" vertex="1">
          <mxGeometry x="137.5" width="30" height="30" as="geometry" />
        </mxCell>
        <mxCell id="FVse9PISJMVla-ebMSzk-53" value="" style="outlineConnect=0;dashed=0;verticalLabelPosition=bottom;verticalAlign=top;align=center;html=1;shape=mxgraph.aws3.route_table;fillColor=#F58536;gradientColor=none;" parent="FVse9PISJMVla-ebMSzk-42" vertex="1">
          <mxGeometry x="137.5" y="400" width="30" height="30" as="geometry" />
        </mxCell>
        <mxCell id="FVse9PISJMVla-ebMSzk-54" value="" style="outlineConnect=0;dashed=0;verticalLabelPosition=bottom;verticalAlign=top;align=center;html=1;shape=mxgraph.aws3.route_table;fillColor=#F58536;gradientColor=none;" parent="FVse9PISJMVla-ebMSzk-42" vertex="1">
          <mxGeometry x="297.5" y="160" width="30" height="30" as="geometry" />
        </mxCell>
        <mxCell id="FVse9PISJMVla-ebMSzk-56" value="Availability Zone 2" style="fillColor=none;strokeColor=#147EBA;dashed=1;verticalAlign=top;fontStyle=0;fontColor=#147EBA;whiteSpace=wrap;html=1;" parent="FVse9PISJMVla-ebMSzk-42" vertex="1">
          <mxGeometry x="-20" y="-20" width="390" height="520" as="geometry" />
        </mxCell>
        <mxCell id="FVse9PISJMVla-ebMSzk-67" value="&lt;b&gt;NAT&lt;br&gt;Gateway&amp;nbsp;&lt;/b&gt;" style="text;html=1;strokeColor=none;fillColor=none;align=center;verticalAlign=middle;whiteSpace=wrap;rounded=0;" parent="FVse9PISJMVla-ebMSzk-42" vertex="1">
          <mxGeometry x="257.5" y="272.5" width="60" height="30" as="geometry" />
        </mxCell>
        <mxCell id="FVse9PISJMVla-ebMSzk-63" style="edgeStyle=orthogonalEdgeStyle;rounded=0;orthogonalLoop=1;jettySize=auto;html=1;entryX=0;entryY=0.5;entryDx=0;entryDy=0;entryPerimeter=0;" parent="1" source="FVse9PISJMVla-ebMSzk-62" target="FVse9PISJMVla-ebMSzk-11" edge="1">
          <mxGeometry relative="1" as="geometry" />
        </mxCell>
        <mxCell id="FVse9PISJMVla-ebMSzk-62" value="" style="shape=image;verticalLabelPosition=bottom;labelBackgroundColor=default;verticalAlign=top;aspect=fixed;imageAspect=0;image=data:image/svg+xml,PHN2ZyB4bWxucz0iaHR0cDovL3d3dy53My5vcmcvMjAwMC9zdmciIGhlaWdodD0iNjQiIHdpZHRoPSI2NCIgdmlld0JveD0iMCAwIDY0IDY0Ij48ZGVmcz48bWFzayBtYXNrVW5pdHM9InVzZXJTcGFjZU9uVXNlIiB4PSIuMSIgeT0iMCIgd2lkdGg9IjY0LjYiIGhlaWdodD0iNjkiIGlkPSJBIj48ZyBmaWx0ZXI9InVybCgjRSkiPjxwYXRoIGZpbGw9IiNmZmYiIGQ9Ik02NC44IDBILjF2NjloNjQuN3oiLz48L2c+PC9tYXNrPjxmaWx0ZXIgZmlsdGVyVW5pdHM9InVzZXJTcGFjZU9uVXNlIiB4PSIwIiB5PSIuMSIgd2lkdGg9IjExLjUiIGhlaWdodD0iMTIuNyI+PGZlQ29sb3JNYXRyaXggdmFsdWVzPSIxIDAgMCAwIDAgMCAxIDAgMCAwIDAgMCAxIDAgMCAwIDAgMCAxIDAiLz48L2ZpbHRlcj48ZmlsdGVyIGZpbHRlclVuaXRzPSJ1c2VyU3BhY2VPblVzZSIgeD0iLjEiIHk9Ii4yIiB3aWR0aD0iMTAuNiIgaGVpZ2h0PSIxMi45Ij48ZmVDb2xvck1hdHJpeCB2YWx1ZXM9IjEgMCAwIDAgMCAwIDEgMCAwIDAgMCAwIDEgMCAwIDAgMCAwIDEgMCIvPjwvZmlsdGVyPjxmaWx0ZXIgZmlsdGVyVW5pdHM9InVzZXJTcGFjZU9uVXNlIiB4PSIwIiB5PSIuMiIgd2lkdGg9IjEyLjciIGhlaWdodD0iMTIuOSI+PGZlQ29sb3JNYXRyaXggdmFsdWVzPSIxIDAgMCAwIDAgMCAxIDAgMCAwIDAgMCAxIDAgMCAwIDAgMCAxIDAiLz48L2ZpbHRlcj48ZmlsdGVyIGlkPSJFIiBmaWx0ZXJVbml0cz0idXNlclNwYWNlT25Vc2UiIHg9Ii4xIiB5PSIwIiB3aWR0aD0iNjQuNiIgaGVpZ2h0PSI2OSI+PGZlQ29sb3JNYXRyaXggdmFsdWVzPSIxIDAgMCAwIDAgMCAxIDAgMCAwIDAgMCAxIDAgMCAwIDAgMCAxIDAiLz48L2ZpbHRlcj48L2RlZnM+PGcgZmlsbD0iIzVjMmQ5MCI+PHBhdGggbWFzaz0idXJsKCNBKSIgZD0iTTU3LjcwNSAzMy43MTdsMS41NzUgMjAuMUwzMS40IDU4LjgyIDI5IDM4LjcybDMuOTgzLS41NTZjLjY0OC4yNzggMS4xMTIuMzcgMS44NTMuNTU2IDEuMjA0LjI3OCAyLjU5NC42NDggNC42My0uNDYzLjQ2My0uMjc4IDEuNDgyLTEuMTEyIDEuODUzLTEuNjY3em0tNDMuMDczIDIzLjljLS40NjMtLjc0LTEuMjk3LTEuNTc1LTIuNTk0LTIuNTk0LTEuODUzLTEuNDgyLTEuMjA0LTQuMDc2LS4wOTMtNS42NSAxLjQtMi42ODYgOC43MDctNi4yMDYgOC4zMzctMTAuNTYtLjE4NS0xLjU3NS0uMzctMy42MTMtMS44NTMtNS4wOTUtLjA5My41NTYgMCAxLjExMiAwIDEuMTEycy0uNjQ4LS43NC0uOTI2LTEuODUzYy0uMjc4LS4zNy0uNTU2LS41NTYtLjgzNC0xLjExMi0uMTg1LjY0OC0uMTg1IDEuMjk3LS4xODUgMS4yOTdzLS40NjMtMS4yMDQtLjU1Ni0yLjEzYy0uMjc4LjQ2My0uMzcgMS4yOTctLjM3IDEuMjk3cy0uNjQ4LTEuODUzLS40NjMtMi44N2MtLjI3OC0uODM0LTEuMjA0LTIuNTk0LS45MjYtNi40ODQgMS41NzUgMS4xMTIgNS4wOTUuODM0IDYuNDg0LTEuMjA0LjQ2My0uNjQ4Ljc0LTIuNS0uMTg1LTYuMTE0LS42NDgtMi4zMTYtMi4yMjMtNS43NDMtMi44Ny03LjA0bC0uMDkzLjA5M2MuMzcgMS4wMiAxLjAyIDMuMjQyIDEuMjk3IDQuMzU0Ljc0IDMuMjQyIDEuMDIgNC4zNTQuNjQ4IDUuODM2LS4yNzggMS4yOTctMS4wMiAyLjEzLTIuOTY0IDMuMDU3LTEuODUzLjkyNi00LjQ0Ni0xLjQtNC41NC0xLjQ4Mi0xLjg1My0xLjQ4Mi0zLjI0Mi0zLjktMy40MjctNS4wMDItLjE4NS0xLjI5Ny43NC0yLjAzOCAxLjIwNC0zLjA1Ny0uNjQ4LjE4NS0xLjQuNTU2LTEuNC41NTZzLjgzNC0uOTI2IDEuOTQ1LTEuNjY3YTkuNDMgOS40MyAwIDAgMCAxLjIwNC0uODM0SDEwLjI4czEuMTEyLS42NDggMi4zMTYtMS4wMkgxMC45M2w0LjQ0Ni0xLjk0NWMxLjQtLjU1NiAyLjY4Ni0uMzcgMy40MjcuNjQ4IDEuMDIgMS40IDIuMDM4IDIuMTMgNC4xNjggMi42ODYgMS4yOTctLjU1NiAxLjc2LS45MjYgMy40MjctMS40IDEuNDgyLTEuNjY3IDIuNjg2LTEuODUzIDIuNjg2LTEuODUzcy0uODM0Ljc0LS45MjYgMS41NzVjLjgzNC0uNjQ4IDEuNzYtMS4yMDQgMS43Ni0xLjIwNHMtLjM3LjQ2My0uNjQ4IDEuMTEybC4wOTMuMDkzYzEuMDItLjU1NiAyLjEzLTEuMDIgMi4xMy0xLjAycy0uMzcuMzctLjc0LjkyNmMuNzQgMCAyLjIyMyAwIDIuNzguMDkzIDMuNDI3LjA5MyA0LjE2OC0zLjYxMyA1LjQ2NS00LjE2OCAxLjY2Ny0uNTU2IDIuNDA4LS45MjYgNS4xODcgMS44NTMgMi40MDggMi40MDggNC4yNiA2LjU3NyAzLjMzNSA3LjUwMy0uNzQuNzQtMi4zMTYtLjI3OC00LjA3Ni0yLjQwOC0uOTI2LTEuMTEyLTEuNTc1LTIuNS0xLjk0NS00LjE2OC0uMTg1LTEuNC0xLjIwNC0yLjIyMy0xLjIwNC0yLjIyM3MuNjQ4IDEuNC42NDggMi41OTRjMCAuNjQ4LjA5MyAzLjA1NyAxLjExMiA0LjQ0Ni0uMDkzLjE4NS0uMTg1IDEuMDItLjI3OCAxLjExMi0xLjIwNC0xLjQ4Mi0zLjktMi41LTQuMjYtMi44NyAxLjQ4MiAxLjIwNCA0LjgxNyAzLjkgNi4xMTQgNi40ODQgMS4yMDQgMi41LjQ2MyA0LjcyNCAxLjExMiA1LjI4LjE4NS4xODUgMi41OTQgMy4xNSAzLjA1NyA0LjcyNC44MzQgMi42ODYuMDkzIDUuNDY1LTEuMDIgNy4xMzJsLTIuOTY0LjQ2M2EzLjkyIDMuOTIgMCAwIDEtMS4xMTItLjM3MWMuMTg1LS4zNy42NDgtMS4yOTcuNjQ4LTEuNDgybC0uMTg1LS4yNzhjLS45MjYgMS4yOTctMi41IDIuNTk0LTMuNzk4IDMuMzM1LTEuNjY3LjkyNi0zLjYxMy44MzQtNC45LjM3LTMuNjEzLTEuMTEyLTcuMDQtMy41Mi03Ljc4LTQuMTY4IDAgMCAwIC40NjMuMDkzLjY0OGEyOC4wNyAyOC4wNyAwIDAgMCA1LjAwMiA0LjE2OGwtNC4yNi40NjMgMi4wMzggMTUuNzQ3Yy0uOTI2LjA5My0xLjAyLjE4NS0yLjAzOC4zNy0uODM0LTMuMDU3LTIuNS01LjAwMi00LjM1NC02LjIwNi0xLjU3NS0xLjAyLTMuNzk4LTEuMjk3LTUuOTI4LS44MzRsLS4wOTMuMTg1YzEuNDgyLS4xODUgMy4yNDIuMDkzIDUuMDAyIDEuMjA0czMuMTUgMy45ODMgMy43MDUgNS42NWMuNjQ4IDIuMjIzIDEuMTEyIDQuNTQtLjY0OCA3LjA0LTEuMjk3IDEuNzYtNS4wMDIgMi43OC03Ljk2Ni42NDguODM0IDEuMjk3IDEuODUzIDIuMzE2IDMuMzM1IDIuNSAyLjEzLjI3OCA0LjE2OC0uMDkzIDUuNjUtMS40ODIgMS4yMDQtMS4yMDQgMS44NTMtMy43OTggMS42NjctNi41NzdsMS45NDUtLjI3OC42NDggNC45TDYyLjA2IDU2LjdsLTIuNzgtMjUuMTk1LTEuNTc1LjI3OEw1NC41NTYgMCAxLjk0MiA2LjExNGw2LjQ4NCA1Mi40Mjh6Ii8+PHBhdGggZD0iTTM5LjY2NSAzMC4wNmMxLjQgMS4wMiAyLjU5NCAxLjY2NyAzLjc5OCAxLjU3NS43NC0uMDkzIDEuNDgyLTEuMjk3IDEuOTQ1LTIuNDA4LjM3LS43NC4zNy0xLjU3NS0uMTg1LTEuODUzLS4yNzgtLjA5My0xLjQtLjA5My0yLjIyMyAwLTEuNTc1LjE4NS0zLjE1Ljc0LTMuNTIgMS4wMi0uNTU2LjM3LS4yNzggMS4yOTcuMTg1IDEuNjY3bS4zNy0xMC44NHYuMDkzbC4wOTMuMTg1Yy4zNy43NC43NCAxLjQ4MiAxLjQ4MiAxLjg1My4xODUgMCAuMzctLjA5My41NTYtLjA5My42NDggMCAxLjAyLjA5MyAxLjI5Ny4xODV2LS41NTZjLS4wOTMtLjkyNi4xODUtMi41OTQtMS42NjctMy41Mi0uNzQtLjM3LTEuNjY3LS4xODUtMi4wMzguMTg1aC4xODVjLjQ2My4xODUuMTg1LjM3LjA5My41NTYtLjA5My4zNy0uMTg1LjQ2MyAwIDEuMTEyIi8+PHBhdGggZD0iTTMxLjY5OCAxOS40MDdjLjQ2My0uMzctMi4xMy0uOTI2LTQuMTY4LjM3LTEuNDgyIDEuMDItMS40ODIgMy4xNS0uMDkzIDQuMzU0YTEuMjcgMS4yNyAwIDAgMSAuMzcuMjc4Yy4zNy0uMTg1LjkyNi0uMzcgMS40LS41NTYuOTI2LS4yNzggMS42NjctLjQ2MyAyLjMxNi0uNTU2LjI3OC0uMzcuNjQ4LS45MjYuNTU2LTEuOTQ1LS4wOTMtMS40LTEuMjA0LTEuMTEyLS4zNy0xLjk0NW0xNS4wOTggMjIuNWwtNC40NDYgNy40LTUuMTg3LTEuNTc1LTQuNTQgNi45NDcuMTg1IDIuMjIzIDI0LjgyNS00LjU0LTEuNDgyLTE1LjQ3LTQuMDc2IDguNTIyeiIvPjwvZz48L3N2Zz4=;" parent="1" vertex="1">
          <mxGeometry x="-130" y="580.5" width="64" height="64" as="geometry" />
        </mxCell>
        <mxCell id="FVse9PISJMVla-ebMSzk-64" value="&lt;b&gt;API Gateway&amp;nbsp;&lt;/b&gt;" style="text;html=1;strokeColor=none;fillColor=none;align=center;verticalAlign=middle;whiteSpace=wrap;rounded=0;" parent="1" vertex="1">
          <mxGeometry x="100" y="650" width="60" height="30" as="geometry" />
        </mxCell>
        <mxCell id="FVse9PISJMVla-ebMSzk-66" value="&lt;b&gt;NAT&lt;br&gt;Gateway&amp;nbsp;&lt;/b&gt;" style="text;html=1;strokeColor=none;fillColor=none;align=center;verticalAlign=middle;whiteSpace=wrap;rounded=0;" parent="1" vertex="1">
          <mxGeometry x="520" y="410" width="60" height="30" as="geometry" />
        </mxCell>
        <mxCell id="L0ZR3s3rj-HcsSdD_-0X-1" style="edgeStyle=orthogonalEdgeStyle;rounded=0;orthogonalLoop=1;jettySize=auto;html=1;endArrow=none;endFill=0;" parent="1" target="FVse9PISJMVla-ebMSzk-6" edge="1">
          <mxGeometry relative="1" as="geometry">
            <mxPoint x="740" y="710" as="targetPoint" />
            <mxPoint x="620" y="903" as="sourcePoint" />
            <Array as="points">
              <mxPoint x="680" y="903" />
              <mxPoint x="680" y="705" />
            </Array>
          </mxGeometry>
        </mxCell>
        <mxCell id="_DM3q8n_0b13F57xZosf-17" value="" style="group" parent="1" vertex="1" connectable="0">
          <mxGeometry x="280" y="151" width="337.5" height="488" as="geometry" />
        </mxCell>
        <mxCell id="_DM3q8n_0b13F57xZosf-18" value="Public subnet" style="points=[[0,0],[0.25,0],[0.5,0],[0.75,0],[1,0],[1,0.25],[1,0.5],[1,0.75],[1,1],[0.75,1],[0.5,1],[0.25,1],[0,1],[0,0.75],[0,0.5],[0,0.25]];outlineConnect=0;gradientColor=none;html=1;whiteSpace=wrap;fontSize=12;fontStyle=0;container=1;pointerEvents=0;collapsible=0;recursiveResize=0;shape=mxgraph.aws4.group;grIcon=mxgraph.aws4.group_security_group;grStroke=0;strokeColor=#248814;fillColor=#E9F3E6;verticalAlign=top;align=left;spacingLeft=30;fontColor=#248814;dashed=0;" parent="_DM3q8n_0b13F57xZosf-17" vertex="1">
          <mxGeometry x="217.5" y="207.5" width="120" height="95" as="geometry" />
        </mxCell>
        <mxCell id="_DM3q8n_0b13F57xZosf-19" value="" style="sketch=0;outlineConnect=0;fontColor=#232F3E;gradientColor=none;fillColor=#4D27AA;strokeColor=none;dashed=0;verticalLabelPosition=bottom;verticalAlign=top;align=center;html=1;fontSize=12;fontStyle=0;aspect=fixed;pointerEvents=1;shape=mxgraph.aws4.nat_gateway;" parent="_DM3q8n_0b13F57xZosf-18" vertex="1">
          <mxGeometry x="50" y="32.5" width="30" height="30" as="geometry" />
        </mxCell>
        <mxCell id="_DM3q8n_0b13F57xZosf-20" value="VPC Endpoint subnet" style="points=[[0,0],[0.25,0],[0.5,0],[0.75,0],[1,0],[1,0.25],[1,0.5],[1,0.75],[1,1],[0.75,1],[0.5,1],[0.25,1],[0,1],[0,0.75],[0,0.5],[0,0.25]];outlineConnect=0;gradientColor=none;html=1;whiteSpace=wrap;fontSize=12;fontStyle=0;container=1;pointerEvents=0;collapsible=0;recursiveResize=0;shape=mxgraph.aws4.group;grIcon=mxgraph.aws4.group_security_group;grStroke=0;strokeColor=#147EBA;fillColor=#E6F2F8;verticalAlign=top;align=left;spacingLeft=30;fontColor=#147EBA;dashed=0;" parent="_DM3q8n_0b13F57xZosf-17" vertex="1">
          <mxGeometry y="393" width="125" height="95" as="geometry" />
        </mxCell>
        <mxCell id="_DM3q8n_0b13F57xZosf-21" style="edgeStyle=orthogonalEdgeStyle;rounded=0;orthogonalLoop=1;jettySize=auto;html=1;" parent="_DM3q8n_0b13F57xZosf-17" source="_DM3q8n_0b13F57xZosf-22" target="_DM3q8n_0b13F57xZosf-18" edge="1">
          <mxGeometry relative="1" as="geometry" />
        </mxCell>
        <mxCell id="_DM3q8n_0b13F57xZosf-22" value="Private subnet" style="points=[[0,0],[0.25,0],[0.5,0],[0.75,0],[1,0],[1,0.25],[1,0.5],[1,0.75],[1,1],[0.75,1],[0.5,1],[0.25,1],[0,1],[0,0.75],[0,0.5],[0,0.25]];outlineConnect=0;gradientColor=none;html=1;whiteSpace=wrap;fontSize=12;fontStyle=0;container=1;pointerEvents=0;collapsible=0;recursiveResize=0;shape=mxgraph.aws4.group;grIcon=mxgraph.aws4.group_security_group;grStroke=0;strokeColor=#147EBA;fillColor=#E6F2F8;verticalAlign=top;align=left;spacingLeft=30;fontColor=#147EBA;dashed=0;" parent="_DM3q8n_0b13F57xZosf-17" vertex="1">
          <mxGeometry y="160" width="125" height="190" as="geometry" />
        </mxCell>
        <mxCell id="_DM3q8n_0b13F57xZosf-23" value="" style="sketch=0;outlineConnect=0;fontColor=#232F3E;gradientColor=none;fillColor=#D45B07;strokeColor=none;dashed=0;verticalLabelPosition=bottom;verticalAlign=top;align=center;html=1;fontSize=12;fontStyle=0;aspect=fixed;pointerEvents=1;shape=mxgraph.aws4.lambda_function;" parent="_DM3q8n_0b13F57xZosf-22" vertex="1">
          <mxGeometry x="45" y="77.5" width="35" height="35" as="geometry" />
        </mxCell>
        <mxCell id="_DM3q8n_0b13F57xZosf-24" value="" style="sketch=0;outlineConnect=0;fontColor=#232F3E;gradientColor=none;fillColor=#D45B07;strokeColor=none;dashed=0;verticalLabelPosition=bottom;verticalAlign=top;align=center;html=1;fontSize=12;fontStyle=0;aspect=fixed;pointerEvents=1;shape=mxgraph.aws4.lambda_function;" parent="_DM3q8n_0b13F57xZosf-22" vertex="1">
          <mxGeometry x="45" y="130" width="35" height="35" as="geometry" />
        </mxCell>
        <mxCell id="_DM3q8n_0b13F57xZosf-25" value="Deployment subnet" style="points=[[0,0],[0.25,0],[0.5,0],[0.75,0],[1,0],[1,0.25],[1,0.5],[1,0.75],[1,1],[0.75,1],[0.5,1],[0.25,1],[0,1],[0,0.75],[0,0.5],[0,0.25]];outlineConnect=0;gradientColor=none;html=1;whiteSpace=wrap;fontSize=12;fontStyle=0;container=1;pointerEvents=0;collapsible=0;recursiveResize=0;shape=mxgraph.aws4.group;grIcon=mxgraph.aws4.group_security_group;grStroke=0;strokeColor=#147EBA;fillColor=#E6F2F8;verticalAlign=top;align=left;spacingLeft=30;fontColor=#147EBA;dashed=0;" parent="_DM3q8n_0b13F57xZosf-17" vertex="1">
          <mxGeometry y="10" width="120" height="90" as="geometry" />
        </mxCell>
        <mxCell id="_DM3q8n_0b13F57xZosf-26" value="" style="outlineConnect=0;dashed=0;verticalLabelPosition=bottom;verticalAlign=top;align=center;html=1;shape=mxgraph.aws3.route_table;fillColor=#F58536;gradientColor=none;" parent="_DM3q8n_0b13F57xZosf-17" vertex="1">
          <mxGeometry x="137.5" y="150" width="30" height="30" as="geometry" />
        </mxCell>
        <mxCell id="_DM3q8n_0b13F57xZosf-27" value="" style="outlineConnect=0;dashed=0;verticalLabelPosition=bottom;verticalAlign=top;align=center;html=1;shape=mxgraph.aws3.route_table;fillColor=#F58536;gradientColor=none;" parent="_DM3q8n_0b13F57xZosf-17" vertex="1">
          <mxGeometry x="137.5" width="30" height="30" as="geometry" />
        </mxCell>
        <mxCell id="_DM3q8n_0b13F57xZosf-28" value="" style="outlineConnect=0;dashed=0;verticalLabelPosition=bottom;verticalAlign=top;align=center;html=1;shape=mxgraph.aws3.route_table;fillColor=#F58536;gradientColor=none;" parent="_DM3q8n_0b13F57xZosf-17" vertex="1">
          <mxGeometry x="137.5" y="400" width="30" height="30" as="geometry" />
        </mxCell>
        <mxCell id="_DM3q8n_0b13F57xZosf-29" value="" style="outlineConnect=0;dashed=0;verticalLabelPosition=bottom;verticalAlign=top;align=center;html=1;shape=mxgraph.aws3.route_table;fillColor=#F58536;gradientColor=none;" parent="_DM3q8n_0b13F57xZosf-17" vertex="1">
          <mxGeometry x="297.5" y="160" width="30" height="30" as="geometry" />
        </mxCell>
        <mxCell id="ryYTs3-FOTMboWEBiJkc-4" value="&lt;b&gt;NAT&lt;br&gt;Gateway&amp;nbsp;&lt;/b&gt;" style="text;html=1;strokeColor=none;fillColor=none;align=center;verticalAlign=middle;whiteSpace=wrap;rounded=0;" vertex="1" parent="_DM3q8n_0b13F57xZosf-17">
          <mxGeometry x="250" y="272.5" width="60" height="30" as="geometry" />
        </mxCell>
        <mxCell id="_DM3q8n_0b13F57xZosf-30" value="Availability Zone 1" style="fillColor=none;strokeColor=#147EBA;dashed=1;verticalAlign=top;fontStyle=0;fontColor=#147EBA;whiteSpace=wrap;html=1;" parent="1" vertex="1">
          <mxGeometry x="265" y="130" width="385" height="520" as="geometry" />
        </mxCell>
        <mxCell id="ryYTs3-FOTMboWEBiJkc-2" style="edgeStyle=orthogonalEdgeStyle;rounded=0;orthogonalLoop=1;jettySize=auto;html=1;entryX=0.143;entryY=0.635;entryDx=0;entryDy=0;entryPerimeter=0;" edge="1" parent="1" source="FVse9PISJMVla-ebMSzk-11" target="_DM3q8n_0b13F57xZosf-30">
          <mxGeometry relative="1" as="geometry" />
        </mxCell>
        <mxCell id="ryYTs3-FOTMboWEBiJkc-1" style="edgeStyle=orthogonalEdgeStyle;rounded=0;orthogonalLoop=1;jettySize=auto;html=1;" edge="1" parent="1" source="FVse9PISJMVla-ebMSzk-11">
          <mxGeometry relative="1" as="geometry">
            <mxPoint x="320" y="410" as="targetPoint" />
            <Array as="points">
              <mxPoint x="130" y="410" />
            </Array>
          </mxGeometry>
        </mxCell>
      </root>
    </mxGraphModel>
  </diagram>
</mxfile>
